<?xml version="1.0" encoding="UTF-8" standalone="no"?><svg xmlns="http://www.w3.org/2000/svg" xmlns:xlink="http://www.w3.org/1999/xlink" contentScriptType="application/ecmascript" contentStyleType="text/css" height="483px" preserveAspectRatio="none" style="width:1013px;height:483px;" version="1.1" viewBox="0 0 1013 483" width="1013px" zoomAndPan="magnify"><defs><filter height="300%" id="f5vsrrfe9c4ku" width="300%" x="-1" y="-1"><feGaussianBlur result="blurOut" stdDeviation="2.0"/><feColorMatrix in="blurOut" result="blurOut2" type="matrix" values="0 0 0 0 0 0 0 0 0 0 0 0 0 0 0 0 0 0 .4 0"/><feOffset dx="4.0" dy="4.0" in="blurOut2" result="blurOut3"/><feBlend in="SourceGraphic" in2="blurOut3" mode="normal"/></filter></defs><g><line style="stroke:#A80036;stroke-width:1.0;stroke-dasharray:5.0,5.0;" x1="23" x2="23" y1="88.2969" y2="399.625"/><line style="stroke:#A80036;stroke-width:1.0;stroke-dasharray:5.0,5.0;" x1="120" x2="120" y1="88.2969" y2="399.625"/><line style="stroke:#A80036;stroke-width:1.0;stroke-dasharray:5.0,5.0;" x1="271" x2="271" y1="88.2969" y2="399.625"/><line style="stroke:#A80036;stroke-width:1.0;stroke-dasharray:5.0,5.0;" x1="469" x2="469" y1="88.2969" y2="399.625"/><line style="stroke:#A80036;stroke-width:1.0;stroke-dasharray:5.0,5.0;" x1="607" x2="607" y1="88.2969" y2="399.625"/><line style="stroke:#A80036;stroke-width:1.0;stroke-dasharray:5.0,5.0;" x1="767" x2="767" y1="88.2969" y2="399.625"/><line style="stroke:#A80036;stroke-width:1.0;stroke-dasharray:5.0,5.0;" x1="907" x2="907" y1="88.2969" y2="399.625"/><line style="stroke:#A80036;stroke-width:1.0;stroke-dasharray:5.0,5.0;" x1="984" x2="984" y1="88.2969" y2="399.625"/><text fill="#000000" font-family="sans-serif" font-size="14" lengthAdjust="spacing" textLength="31" x="5" y="84.9951">User</text><ellipse cx="23.5" cy="15" fill="#FEFECE" filter="url(#f5vsrrfe9c4ku)" rx="8" ry="8" style="stroke:#A80036;stroke-width:2.0;"/><path d="M23.5,23 L23.5,50 M10.5,31 L36.5,31 M23.5,50 L10.5,65 M23.5,50 L36.5,65 " fill="none" filter="url(#f5vsrrfe9c4ku)" style="stroke:#A80036;stroke-width:2.0;"/><text fill="#000000" font-family="sans-serif" font-size="14" lengthAdjust="spacing" textLength="31" x="5" y="411.6201">User</text><ellipse cx="23.5" cy="424.9219" fill="#FEFECE" filter="url(#f5vsrrfe9c4ku)" rx="8" ry="8" style="stroke:#A80036;stroke-width:2.0;"/><path d="M23.5,432.9219 L23.5,459.9219 M10.5,440.9219 L36.5,440.9219 M23.5,459.9219 L10.5,474.9219 M23.5,459.9219 L36.5,474.9219 " fill="none" filter="url(#f5vsrrfe9c4ku)" style="stroke:#A80036;stroke-width:2.0;"/><rect fill="#FEFECE" filter="url(#f5vsrrfe9c4ku)" height="30.2969" style="stroke:#A80036;stroke-width:1.5;" width="132" x="52" y="53"/><text fill="#000000" font-family="sans-serif" font-size="14" lengthAdjust="spacing" textLength="118" x="59" y="72.9951">CommandParser</text><rect fill="#FEFECE" filter="url(#f5vsrrfe9c4ku)" height="30.2969" style="stroke:#A80036;stroke-width:1.5;" width="132" x="52" y="398.625"/><text fill="#000000" font-family="sans-serif" font-size="14" lengthAdjust="spacing" textLength="118" x="59" y="418.6201">CommandParser</text><rect fill="#FEFECE" filter="url(#f5vsrrfe9c4ku)" height="30.2969" style="stroke:#A80036;stroke-width:1.5;" width="142" x="198" y="53"/><text fill="#000000" font-family="sans-serif" font-size="14" lengthAdjust="spacing" textLength="128" x="205" y="72.9951">CommandHandler</text><rect fill="#FEFECE" filter="url(#f5vsrrfe9c4ku)" height="30.2969" style="stroke:#A80036;stroke-width:1.5;" width="142" x="198" y="398.625"/><text fill="#000000" font-family="sans-serif" font-size="14" lengthAdjust="spacing" textLength="128" x="205" y="418.6201">CommandHandler</text><rect fill="#FEFECE" filter="url(#f5vsrrfe9c4ku)" height="30.2969" style="stroke:#A80036;stroke-width:1.5;" width="116" x="409" y="53"/><text fill="#000000" font-family="sans-serif" font-size="14" lengthAdjust="spacing" textLength="102" x="416" y="72.9951">FormatPrinter</text><rect fill="#FEFECE" filter="url(#f5vsrrfe9c4ku)" height="30.2969" style="stroke:#A80036;stroke-width:1.5;" width="116" x="409" y="398.625"/><text fill="#000000" font-family="sans-serif" font-size="14" lengthAdjust="spacing" textLength="102" x="416" y="418.6201">FormatPrinter</text><rect fill="#FEFECE" filter="url(#f5vsrrfe9c4ku)" height="30.2969" style="stroke:#A80036;stroke-width:1.5;" width="132" x="539" y="53"/><text fill="#000000" font-family="sans-serif" font-size="14" lengthAdjust="spacing" textLength="118" x="546" y="72.9951">StorageManager</text><rect fill="#FEFECE" filter="url(#f5vsrrfe9c4ku)" height="30.2969" style="stroke:#A80036;stroke-width:1.5;" width="132" x="539" y="398.625"/><text fill="#000000" font-family="sans-serif" font-size="14" lengthAdjust="spacing" textLength="118" x="546" y="418.6201">StorageManager</text><rect fill="#FEFECE" filter="url(#f5vsrrfe9c4ku)" height="30.2969" style="stroke:#A80036;stroke-width:1.5;" width="160" x="685" y="53"/><text fill="#000000" font-family="sans-serif" font-size="14" lengthAdjust="spacing" textLength="146" x="692" y="72.9951">NotificationManager</text><rect fill="#FEFECE" filter="url(#f5vsrrfe9c4ku)" height="30.2969" style="stroke:#A80036;stroke-width:1.5;" width="160" x="685" y="398.625"/><text fill="#000000" font-family="sans-serif" font-size="14" lengthAdjust="spacing" textLength="146" x="692" y="418.6201">NotificationManager</text><text fill="#000000" font-family="sans-serif" font-size="14" lengthAdjust="spacing" textLength="90" x="859" y="84.9951">TaskStorage</text><path d="M889,36 C889,26 907,26 907,26 C907,26 925,26 925,36 L925,62 C925,72 907,72 907,72 C907,72 889,72 889,62 L889,36 " fill="#FEFECE" filter="url(#f5vsrrfe9c4ku)" style="stroke:#000000;stroke-width:1.5;"/><path d="M889,36 C889,46 907,46 907,46 C907,46 925,46 925,36 " fill="none" style="stroke:#000000;stroke-width:1.5;"/><text fill="#000000" font-family="sans-serif" font-size="14" lengthAdjust="spacing" textLength="90" x="859" y="411.6201">TaskStorage</text><path d="M889,424.9219 C889,414.9219 907,414.9219 907,414.9219 C907,414.9219 925,414.9219 925,424.9219 L925,450.9219 C925,460.9219 907,460.9219 907,460.9219 C907,460.9219 889,460.9219 889,450.9219 L889,424.9219 " fill="#FEFECE" filter="url(#f5vsrrfe9c4ku)" style="stroke:#000000;stroke-width:1.5;"/><path d="M889,424.9219 C889,434.9219 907,434.9219 907,434.9219 C907,434.9219 925,434.9219 925,424.9219 " fill="none" style="stroke:#000000;stroke-width:1.5;"/><rect fill="#FEFECE" filter="url(#f5vsrrfe9c4ku)" height="30.2969" style="stroke:#A80036;stroke-width:1.5;" width="34" x="965" y="53"/><text fill="#000000" font-family="sans-serif" font-size="14" lengthAdjust="spacing" textLength="20" x="972" y="72.9951">OS</text><rect fill="#FEFECE" filter="url(#f5vsrrfe9c4ku)" height="30.2969" style="stroke:#A80036;stroke-width:1.5;" width="34" x="965" y="398.625"/><text fill="#000000" font-family="sans-serif" font-size="14" lengthAdjust="spacing" textLength="20" x="972" y="418.6201">OS</text><polygon fill="#A80036" points="108,115.4297,118,119.4297,108,123.4297,112,119.4297" style="stroke:#A80036;stroke-width:1.0;"/><line style="stroke:#A80036;stroke-width:1.0;" x1="23.5" x2="114" y1="119.4297" y2="119.4297"/><text fill="#000000" font-family="sans-serif" font-size="13" lengthAdjust="spacing" textLength="65" x="30.5" y="114.3638">User input</text><polygon fill="#A80036" points="259,144.5625,269,148.5625,259,152.5625,263,148.5625" style="stroke:#A80036;stroke-width:1.0;"/><line style="stroke:#A80036;stroke-width:1.0;" x1="120" x2="265" y1="148.5625" y2="148.5625"/><text fill="#000000" font-family="sans-serif" font-size="13" lengthAdjust="spacing" textLength="119" x="127" y="143.4966">Preprocessed args</text><polygon fill="#A80036" points="755,173.6953,765,177.6953,755,181.6953,759,177.6953" style="stroke:#A80036;stroke-width:1.0;"/><line style="stroke:#A80036;stroke-width:1.0;stroke-dasharray:2.0,2.0;" x1="271" x2="761" y1="177.6953" y2="177.6953"/><text fill="#000000" font-family="sans-serif" font-size="13" lengthAdjust="spacing" textLength="66" x="278" y="172.6294">New tasks</text><polygon fill="#A80036" points="972,202.8281,982,206.8281,972,210.8281,976,206.8281" style="stroke:#A80036;stroke-width:1.0;"/><line style="stroke:#A80036;stroke-width:1.0;stroke-dasharray:2.0,2.0;" x1="767" x2="978" y1="206.8281" y2="206.8281"/><text fill="#000000" font-family="sans-serif" font-size="13" lengthAdjust="spacing" textLength="105" x="774" y="201.7622">Notification data</text><polygon fill="#A80036" points="595,231.9609,605,235.9609,595,239.9609,599,235.9609" style="stroke:#A80036;stroke-width:1.0;"/><line style="stroke:#A80036;stroke-width:1.0;stroke-dasharray:2.0,2.0;" x1="271" x2="601" y1="235.9609" y2="235.9609"/><text fill="#000000" font-family="sans-serif" font-size="13" lengthAdjust="spacing" textLength="66" x="278" y="230.895">New tasks</text><polygon fill="#A80036" points="895,261.0938,905,265.0938,895,269.0938,899,265.0938" style="stroke:#A80036;stroke-width:1.0;"/><line style="stroke:#A80036;stroke-width:1.0;stroke-dasharray:2.0,2.0;" x1="607" x2="901" y1="265.0938" y2="265.0938"/><text fill="#000000" font-family="sans-serif" font-size="13" lengthAdjust="spacing" textLength="66" x="614" y="260.0278">New tasks</text><polygon fill="#A80036" points="618,290.2266,608,294.2266,618,298.2266,614,294.2266" style="stroke:#A80036;stroke-width:1.0;"/><line style="stroke:#A80036;stroke-width:1.0;stroke-dasharray:2.0,2.0;" x1="612" x2="906" y1="294.2266" y2="294.2266"/><text fill="#000000" font-family="sans-serif" font-size="13" lengthAdjust="spacing" textLength="107" x="624" y="289.1606">Requested tasks</text><polygon fill="#A80036" points="282,319.3594,272,323.3594,282,327.3594,278,323.3594" style="stroke:#A80036;stroke-width:1.0;"/><line style="stroke:#A80036;stroke-width:1.0;stroke-dasharray:2.0,2.0;" x1="276" x2="606" y1="323.3594" y2="323.3594"/><text fill="#000000" font-family="sans-serif" font-size="13" lengthAdjust="spacing" textLength="107" x="288" y="318.2935">Requested tasks</text><polygon fill="#A80036" points="457,348.4922,467,352.4922,457,356.4922,461,352.4922" style="stroke:#A80036;stroke-width:1.0;"/><line style="stroke:#A80036;stroke-width:1.0;" x1="271" x2="463" y1="352.4922" y2="352.4922"/><text fill="#000000" font-family="sans-serif" font-size="13" lengthAdjust="spacing" textLength="174" x="278" y="347.4263">Command execution result</text><polygon fill="#A80036" points="34.5,377.625,24.5,381.625,34.5,385.625,30.5,381.625" style="stroke:#A80036;stroke-width:1.0;"/><line style="stroke:#A80036;stroke-width:1.0;" x1="28.5" x2="468" y1="381.625" y2="381.625"/><text fill="#000000" font-family="sans-serif" font-size="13" lengthAdjust="spacing" textLength="108" x="40.5" y="376.5591">Formatted ouput</text><!--MD5=[fe3fd6f6fe9f02aa9ade7ef6a8547264]
@startuml
actor User
participant CommandParser
participant CommandHandler
participant FormatPrinter
participant StorageManager
participant NotificationManager
database TaskStorage
participant OS

User -> CommandParser: User input
CommandParser -> CommandHandler: Preprocessed args
CommandHandler - -> NotificationManager: New tasks
NotificationManager - -> OS: Notification data
CommandHandler - -> StorageManager: New tasks
StorageManager - -> TaskStorage: New tasks
TaskStorage - -> StorageManager: Requested tasks
StorageManager - -> CommandHandler: Requested tasks
CommandHandler -> FormatPrinter: Command execution result
FormatPrinter -> User: Formatted ouput
@enduml

PlantUML version 1.2021.4beta2(Unknown compile time)
(GPL source distribution)
Java Runtime: Java(TM) SE Runtime Environment
JVM: Java HotSpot(TM) 64-Bit Server VM
Default Encoding: UTF-8
Language: en
Country: US
--></g></svg>