<?xml version="1.0" encoding="UTF-8" standalone="no"?><svg xmlns="http://www.w3.org/2000/svg" xmlns:xlink="http://www.w3.org/1999/xlink" contentScriptType="application/ecmascript" contentStyleType="text/css" height="292px" preserveAspectRatio="none" style="width:924px;height:292px;" version="1.1" viewBox="0 0 924 292" width="924px" zoomAndPan="magnify"><defs><filter height="300%" id="f1jvgg48w34yf7" width="300%" x="-1" y="-1"><feGaussianBlur result="blurOut" stdDeviation="2.0"/><feColorMatrix in="blurOut" result="blurOut2" type="matrix" values="0 0 0 0 0 0 0 0 0 0 0 0 0 0 0 0 0 0 .4 0"/><feOffset dx="4.0" dy="4.0" in="blurOut2" result="blurOut3"/><feBlend in="SourceGraphic" in2="blurOut3" mode="normal"/></filter></defs><g><!--MD5=[a3624a2a5a43b8ade92fe710669ccfb9]
class CommandHandler--><rect codeLine="1" fill="#FEFECE" filter="url(#f1jvgg48w34yf7)" height="112.0234" id="CommandHandler" style="stroke:#A80036;stroke-width:1.5;" width="196" x="281.5" y="7"/><ellipse cx="322.15" cy="23" fill="#ADD1B2" rx="11" ry="11" style="stroke:#A80036;stroke-width:1.0;"/><path d="M324.4938,18.6719 C323.5563,18.2344 322.9625,18.0938 322.0875,18.0938 C319.4625,18.0938 317.4625,20.1719 317.4625,22.8906 L317.4625,24.0156 C317.4625,26.5938 319.5719,28.4844 322.4625,28.4844 C323.6813,28.4844 324.8375,28.1875 325.5875,27.6406 C326.1656,27.2344 326.4938,26.7813 326.4938,26.3906 C326.4938,25.9375 326.1031,25.5469 325.6344,25.5469 C325.4156,25.5469 325.2125,25.625 325.025,25.8125 C324.5719,26.2969 324.5719,26.2969 324.3844,26.3906 C323.9625,26.6563 323.275,26.7813 322.5094,26.7813 C320.4625,26.7813 319.1656,25.6875 319.1656,23.9844 L319.1656,22.8906 C319.1656,21.1094 320.4156,19.7969 322.15,19.7969 C322.7281,19.7969 323.3375,19.9531 323.8063,20.2031 C324.2906,20.4844 324.4625,20.7031 324.5563,21.1094 C324.6188,21.5156 324.65,21.6406 324.7906,21.7656 C324.9313,21.9063 325.1656,22.0156 325.3844,22.0156 C325.65,22.0156 325.9156,21.875 326.0875,21.6563 C326.1969,21.5 326.2281,21.3125 326.2281,20.8906 L326.2281,19.4688 C326.2281,19.0313 326.2125,18.9063 326.1188,18.75 C325.9625,18.4844 325.6813,18.3438 325.3844,18.3438 C325.0875,18.3438 324.8844,18.4375 324.6656,18.75 L324.4938,18.6719 Z " fill="#000000"/><text fill="#000000" font-family="sans-serif" font-size="12" lengthAdjust="spacing" textLength="107" x="341.85" y="27.1543">CommandHandler</text><line style="stroke:#A80036;stroke-width:1.5;" x1="282.5" x2="476.5" y1="39" y2="39"/><line style="stroke:#A80036;stroke-width:1.5;" x1="282.5" x2="476.5" y1="47" y2="47"/><rect fill="#F24D5C" height="6" style="stroke:#C82930;stroke-width:1.0;" width="6" x="289.5" y="55"/><text fill="#000000" font-family="sans-serif" font-size="11" lengthAdjust="spacing" textLength="170" x="301.5" y="61.2104">Condition BuildCondition(args)</text><ellipse cx="292.5" cy="70.8047" fill="#84BE84" rx="3" ry="3" style="stroke:#038048;stroke-width:1.0;"/><text fill="#000000" font-family="sans-serif" font-size="11" lengthAdjust="spacing" textLength="108" x="301.5" y="74.0151">void AddTask(args)</text><ellipse cx="292.5" cy="83.6094" fill="#84BE84" rx="3" ry="3" style="stroke:#038048;stroke-width:1.0;"/><text fill="#000000" font-family="sans-serif" font-size="11" lengthAdjust="spacing" textLength="123" x="301.5" y="86.8198">void ShowTasks(args)</text><ellipse cx="292.5" cy="96.4141" fill="#84BE84" rx="3" ry="3" style="stroke:#038048;stroke-width:1.0;"/><text fill="#000000" font-family="sans-serif" font-size="11" lengthAdjust="spacing" textLength="132" x="301.5" y="99.6245">void DeleteTasks(args)</text><ellipse cx="292.5" cy="109.2188" fill="#84BE84" rx="3" ry="3" style="stroke:#038048;stroke-width:1.0;"/><text fill="#000000" font-family="sans-serif" font-size="11" lengthAdjust="spacing" textLength="136" x="301.5" y="112.4292">void ChangeTasks(args)</text><!--MD5=[c47c8d4c18673c3c891899ebd374dbd0]
class StorageManager--><rect codeLine="9" fill="#FEFECE" filter="url(#f1jvgg48w34yf7)" height="99.2188" id="StorageManager" style="stroke:#A80036;stroke-width:1.5;" width="223" x="7" y="179"/><ellipse cx="64.25" cy="195" fill="#ADD1B2" rx="11" ry="11" style="stroke:#A80036;stroke-width:1.0;"/><path d="M66.5938,190.6719 C65.6563,190.2344 65.0625,190.0938 64.1875,190.0938 C61.5625,190.0938 59.5625,192.1719 59.5625,194.8906 L59.5625,196.0156 C59.5625,198.5938 61.6719,200.4844 64.5625,200.4844 C65.7813,200.4844 66.9375,200.1875 67.6875,199.6406 C68.2656,199.2344 68.5938,198.7813 68.5938,198.3906 C68.5938,197.9375 68.2031,197.5469 67.7344,197.5469 C67.5156,197.5469 67.3125,197.625 67.125,197.8125 C66.6719,198.2969 66.6719,198.2969 66.4844,198.3906 C66.0625,198.6563 65.375,198.7813 64.6094,198.7813 C62.5625,198.7813 61.2656,197.6875 61.2656,195.9844 L61.2656,194.8906 C61.2656,193.1094 62.5156,191.7969 64.25,191.7969 C64.8281,191.7969 65.4375,191.9531 65.9063,192.2031 C66.3906,192.4844 66.5625,192.7031 66.6563,193.1094 C66.7188,193.5156 66.75,193.6406 66.8906,193.7656 C67.0313,193.9063 67.2656,194.0156 67.4844,194.0156 C67.75,194.0156 68.0156,193.875 68.1875,193.6563 C68.2969,193.5 68.3281,193.3125 68.3281,192.8906 L68.3281,191.4688 C68.3281,191.0313 68.3125,190.9063 68.2188,190.75 C68.0625,190.4844 67.7813,190.3438 67.4844,190.3438 C67.1875,190.3438 66.9844,190.4375 66.7656,190.75 L66.5938,190.6719 Z " fill="#000000"/><text fill="#000000" font-family="sans-serif" font-size="12" lengthAdjust="spacing" textLength="100" x="84.75" y="199.1543">StorageManager</text><line style="stroke:#A80036;stroke-width:1.5;" x1="8" x2="229" y1="211" y2="211"/><line style="stroke:#A80036;stroke-width:1.5;" x1="8" x2="229" y1="219" y2="219"/><ellipse cx="18" cy="230" fill="#84BE84" rx="3" ry="3" style="stroke:#038048;stroke-width:1.0;"/><text fill="#000000" font-family="sans-serif" font-size="11" lengthAdjust="spacing" textLength="110" x="27" y="233.2104">void AddTask(Task)</text><ellipse cx="18" cy="242.8047" fill="#84BE84" rx="3" ry="3" style="stroke:#038048;stroke-width:1.0;"/><text fill="#000000" font-family="sans-serif" font-size="11" lengthAdjust="spacing" textLength="197" x="27" y="246.0151">List&lt;Task&gt; SelectTasks(Condition)</text><ellipse cx="18" cy="255.6094" fill="#84BE84" rx="3" ry="3" style="stroke:#038048;stroke-width:1.0;"/><text fill="#000000" font-family="sans-serif" font-size="11" lengthAdjust="spacing" textLength="161" x="27" y="258.8198">void DeleteTasks(Condition)</text><ellipse cx="18" cy="268.4141" fill="#84BE84" rx="3" ry="3" style="stroke:#038048;stroke-width:1.0;"/><text fill="#000000" font-family="sans-serif" font-size="11" lengthAdjust="spacing" textLength="165" x="27" y="271.6245">void ChangeTasks(Condition)</text><!--MD5=[4040e4d8b7535b2d7e5e1edd9ac88ab2]
class NotificationManager--><rect codeLine="16" fill="#FEFECE" filter="url(#f1jvgg48w34yf7)" height="60.8047" id="NotificationManager" style="stroke:#A80036;stroke-width:1.5;" width="229" x="265" y="198"/><ellipse cx="316.25" cy="214" fill="#ADD1B2" rx="11" ry="11" style="stroke:#A80036;stroke-width:1.0;"/><path d="M318.5938,209.6719 C317.6563,209.2344 317.0625,209.0938 316.1875,209.0938 C313.5625,209.0938 311.5625,211.1719 311.5625,213.8906 L311.5625,215.0156 C311.5625,217.5938 313.6719,219.4844 316.5625,219.4844 C317.7813,219.4844 318.9375,219.1875 319.6875,218.6406 C320.2656,218.2344 320.5938,217.7813 320.5938,217.3906 C320.5938,216.9375 320.2031,216.5469 319.7344,216.5469 C319.5156,216.5469 319.3125,216.625 319.125,216.8125 C318.6719,217.2969 318.6719,217.2969 318.4844,217.3906 C318.0625,217.6563 317.375,217.7813 316.6094,217.7813 C314.5625,217.7813 313.2656,216.6875 313.2656,214.9844 L313.2656,213.8906 C313.2656,212.1094 314.5156,210.7969 316.25,210.7969 C316.8281,210.7969 317.4375,210.9531 317.9063,211.2031 C318.3906,211.4844 318.5625,211.7031 318.6563,212.1094 C318.7188,212.5156 318.75,212.6406 318.8906,212.7656 C319.0313,212.9063 319.2656,213.0156 319.4844,213.0156 C319.75,213.0156 320.0156,212.875 320.1875,212.6563 C320.2969,212.5 320.3281,212.3125 320.3281,211.8906 L320.3281,210.4688 C320.3281,210.0313 320.3125,209.9063 320.2188,209.75 C320.0625,209.4844 319.7813,209.3438 319.4844,209.3438 C319.1875,209.3438 318.9844,209.4375 318.7656,209.75 L318.5938,209.6719 Z " fill="#000000"/><text fill="#000000" font-family="sans-serif" font-size="12" lengthAdjust="spacing" textLength="118" x="336.75" y="218.1543">NotificationManager</text><line style="stroke:#A80036;stroke-width:1.5;" x1="266" x2="493" y1="230" y2="230"/><line style="stroke:#A80036;stroke-width:1.5;" x1="266" x2="493" y1="238" y2="238"/><ellipse cx="276" cy="249" fill="#84BE84" rx="3" ry="3" style="stroke:#038048;stroke-width:1.0;"/><text fill="#000000" font-family="sans-serif" font-size="11" lengthAdjust="spacing" textLength="203" x="285" y="252.2104">void ScheduleNotifcation(Task task)</text><!--MD5=[022aae9e57010053ae2d2e48eae3fb6a]
class FormatPrinter--><rect codeLine="20" fill="#FEFECE" filter="url(#f1jvgg48w34yf7)" height="73.6094" id="FormatPrinter" style="stroke:#A80036;stroke-width:1.5;" width="381" x="529" y="191.5"/><ellipse cx="675.25" cy="207.5" fill="#ADD1B2" rx="11" ry="11" style="stroke:#A80036;stroke-width:1.0;"/><path d="M677.5938,203.1719 C676.6563,202.7344 676.0625,202.5938 675.1875,202.5938 C672.5625,202.5938 670.5625,204.6719 670.5625,207.3906 L670.5625,208.5156 C670.5625,211.0938 672.6719,212.9844 675.5625,212.9844 C676.7813,212.9844 677.9375,212.6875 678.6875,212.1406 C679.2656,211.7344 679.5938,211.2813 679.5938,210.8906 C679.5938,210.4375 679.2031,210.0469 678.7344,210.0469 C678.5156,210.0469 678.3125,210.125 678.125,210.3125 C677.6719,210.7969 677.6719,210.7969 677.4844,210.8906 C677.0625,211.1563 676.375,211.2813 675.6094,211.2813 C673.5625,211.2813 672.2656,210.1875 672.2656,208.4844 L672.2656,207.3906 C672.2656,205.6094 673.5156,204.2969 675.25,204.2969 C675.8281,204.2969 676.4375,204.4531 676.9063,204.7031 C677.3906,204.9844 677.5625,205.2031 677.6563,205.6094 C677.7188,206.0156 677.75,206.1406 677.8906,206.2656 C678.0313,206.4063 678.2656,206.5156 678.4844,206.5156 C678.75,206.5156 679.0156,206.375 679.1875,206.1563 C679.2969,206 679.3281,205.8125 679.3281,205.3906 L679.3281,203.9688 C679.3281,203.5313 679.3125,203.4063 679.2188,203.25 C679.0625,202.9844 678.7813,202.8438 678.4844,202.8438 C678.1875,202.8438 677.9844,202.9375 677.7656,203.25 L677.5938,203.1719 Z " fill="#000000"/><text fill="#000000" font-family="sans-serif" font-size="12" lengthAdjust="spacing" textLength="80" x="695.75" y="211.6543">FormatPrinter</text><line style="stroke:#A80036;stroke-width:1.5;" x1="530" x2="909" y1="223.5" y2="223.5"/><rect fill="none" height="6" style="stroke:#C82930;stroke-width:1.0;" width="6" x="537" y="231.5"/><text fill="#000000" font-family="sans-serif" font-size="11" lengthAdjust="spacing" textLength="163" x="549" y="237.7104">config: Map&lt;Strung, Object&gt;</text><line style="stroke:#A80036;stroke-width:1.5;" x1="530" x2="909" y1="244.3047" y2="244.3047"/><ellipse cx="540" cy="255.3047" fill="#84BE84" rx="3" ry="3" style="stroke:#038048;stroke-width:1.0;"/><text fill="#000000" font-family="sans-serif" font-size="11" lengthAdjust="spacing" textLength="355" x="549" y="258.5151">void PrintTasks(List&lt;Task&gt; tasks, Map&lt;Strung, Object&gt; config)</text><!--MD5=[9e2f436ff5e5e7c302848f20b6470786]
reverse link CommandHandler to FormatPrinter--><path codeLine="25" d="M489.854,117.067 C540.493,141.419 599.218,169.658 644.606,191.4849 " fill="none" id="CommandHandler-backto-FormatPrinter" style="stroke:#A80036;stroke-width:1.0;"/><polygon fill="#A80036" points="477.842,111.291,481.5156,117.4962,488.6564,116.4918,484.9828,110.2866,477.842,111.291" style="stroke:#A80036;stroke-width:1.0;"/><text fill="#000000" font-family="sans-serif" font-size="13" lengthAdjust="spacing" textLength="8" x="485.3577" y="111.3575">1</text><!--MD5=[b20eba023015640fa5e4c5682a38a24c]
reverse link CommandHandler to NotificationManager--><path codeLine="26" d="M379.5,132.577 C379.5,155.408 379.5,179.646 379.5,197.9151 " fill="none" id="CommandHandler-backto-NotificationManager" style="stroke:#A80036;stroke-width:1.0;"/><polygon fill="#A80036" points="379.5,119.354,375.5,125.354,379.5,131.354,383.5,125.354,379.5,119.354" style="stroke:#A80036;stroke-width:1.0;"/><text fill="#000000" font-family="sans-serif" font-size="13" lengthAdjust="spacing" textLength="8" x="371.0125" y="139.2098">1</text><!--MD5=[810e5a82c6f60fc2d61cbeedcb9577af]
reverse link CommandHandler to StorageManager--><path codeLine="27" d="M280.122,126.254 C252.28,143.695 222.432,162.393 196.057,178.9153 " fill="none" id="CommandHandler-backto-StorageManager" style="stroke:#A80036;stroke-width:1.0;"/><polygon fill="#A80036" points="291.501,119.126,284.2928,118.9214,281.3315,125.4964,288.5397,125.701,291.501,119.126" style="stroke:#A80036;stroke-width:1.0;"/><text fill="#000000" font-family="sans-serif" font-size="13" lengthAdjust="spacing" textLength="8" x="272.2886" y="138.954">1</text><!--MD5=[5b260ea81246c6ac5d450d4ed274579e]
@startuml
class CommandHandler {
  -Condition BuildCondition(args)
  +void AddTask(args)
  +void ShowTasks(args)
  +void DeleteTasks(args)
  +void ChangeTasks(args)
}

class StorageManager {
  +void AddTask(Task)
  +List<Task> SelectTasks(Condition)
  +void DeleteTasks(Condition)
  +void ChangeTasks(Condition)
}

class NotificationManager {
  +void ScheduleNotifcation(Task task)
}

class FormatPrinter {
  -config: Map<Strung, Object>
  +void PrintTasks(List<Task> tasks, Map<Strung, Object> config)
}

CommandHandler "1" *- - FormatPrinter
CommandHandler "1" *- - NotificationManager
CommandHandler "1" *- - StorageManager
@enduml

PlantUML version 1.2021.4beta2(Unknown compile time)
(GPL source distribution)
Java Runtime: Java(TM) SE Runtime Environment
JVM: Java HotSpot(TM) 64-Bit Server VM
Default Encoding: UTF-8
Language: en
Country: US
--></g></svg>